<svg width="160" height="160" viewBox="0 0 160 160" fill="none" xmlns="http://www.w3.org/2000/svg">
<rect width="160" height="160" fill="white"/>
<path d="M53.2077 130.255C81.2448 124.569 104.697 130.864 118.207 128.12C131.716 125.376 157.859 114.186 139.907 70.5581C121.955 26.9301 81.158 28.2744 66.2912 31.2874C-3.30038 45.3872 3.54909 140.314 53.2077 130.255Z" fill="url(#paint0_linear_28_234)" style="mix-blend-mode:darken"/>
<path fill-rule="evenodd" clip-rule="evenodd" d="M142.373 105.55C141.714 105.543 141.174 106.072 141.167 106.731L141.142 109.118L138.756 109.093C138.096 109.086 137.557 109.615 137.55 110.274C137.543 110.933 138.072 111.473 138.731 111.48L141.118 111.504L141.093 113.891C141.086 114.55 141.615 115.09 142.274 115.097C142.933 115.104 143.473 114.575 143.48 113.916L143.504 111.529L145.891 111.554C146.55 111.561 147.09 111.032 147.097 110.373C147.104 109.714 146.575 109.174 145.916 109.167L143.529 109.142L143.554 106.755C143.561 106.096 143.032 105.557 142.373 105.55Z" fill="#7E54AF"/>
<path fill-rule="evenodd" clip-rule="evenodd" d="M107.617 130.337C107.321 130.595 107.289 131.044 107.547 131.34L108.48 132.414L107.407 133.347C107.111 133.604 107.08 134.054 107.337 134.35C107.595 134.646 108.044 134.678 108.34 134.42L109.414 133.487L110.347 134.56C110.604 134.856 111.054 134.887 111.35 134.63C111.646 134.372 111.678 133.923 111.42 133.627L110.487 132.553L111.56 131.62C111.856 131.363 111.887 130.913 111.63 130.617C111.372 130.321 110.923 130.289 110.627 130.547L109.553 131.48L108.62 130.407C108.363 130.111 107.913 130.08 107.617 130.337Z" fill="#7E54AF"/>
<path fill-rule="evenodd" clip-rule="evenodd" d="M22.5653 29.746C21.935 29.849 21.5075 30.4435 21.6105 31.0738L21.9835 33.3565L19.7008 33.7294C19.0705 33.8324 18.643 34.4269 18.746 35.0573C18.849 35.6876 19.4435 36.1151 20.0738 36.0121L22.3565 35.6391L22.7295 37.9218C22.8324 38.5521 23.4269 38.9796 24.0573 38.8766C24.6876 38.7736 25.1151 38.1791 25.0121 37.5488L24.6391 35.2661L26.9218 34.8931C27.5521 34.7901 27.9796 34.1957 27.8766 33.5653C27.7736 32.935 27.1791 32.5075 26.5488 32.6105L24.2661 32.9835L23.8931 30.7008C23.7901 30.0705 23.1957 29.643 22.5653 29.746Z" fill="#7E54AF"/>
<path fill-rule="evenodd" clip-rule="evenodd" d="M39.1897 33.513C38.8909 33.4422 38.5913 33.6269 38.5205 33.9257L38.264 35.0075L37.1822 34.751C36.8834 34.6802 36.5839 34.8649 36.513 35.1636C36.4422 35.4624 36.6269 35.762 36.9257 35.8328L38.0075 36.0893L37.751 37.1711C37.6802 37.4699 37.8649 37.7695 38.1636 37.8403C38.4624 37.9111 38.762 37.7264 38.8328 37.4276L39.0893 36.3458L40.1711 36.6023C40.4699 36.6732 40.7695 36.4884 40.8403 36.1897C40.9111 35.8909 40.7264 35.5913 40.4276 35.5205L39.3458 35.264L39.6023 34.1822C39.6732 33.8834 39.4884 33.5838 39.1897 33.513Z" fill="#7E54AF"/>
<circle cx="19" cy="50" r="3" fill="white" stroke="#7E54AF" stroke-width="2"/>
<rect x="31" y="43" width="98.9079" height="75" rx="6" fill="white" stroke="#7E54AF" stroke-width="4"/>
<rect width="30.4249" height="34.1136" rx="4" transform="matrix(1 0 0 -1 42.4228 103.841)" fill="#D1B2F5"/>
<rect width="36.6889" height="9.875" rx="4.9375" transform="matrix(1 0 0 -1 82.6911 84.9886)" fill="#7E54AF"/>
<rect width="36.6889" height="3.59091" rx="1.79545" transform="matrix(1 0 0 -1 82.6911 92.1704)" fill="#D1B2F5"/>
<rect width="24.161" height="3.59091" rx="1.79545" transform="matrix(1 0 0 -1 88.955 97.5568)" fill="#D1B2F5"/>
<path d="M32.847 58H128.061V49C128.061 46.7909 126.27 45 124.061 45H36.847C34.6379 45 32.847 46.7909 32.847 49V58Z" fill="#D1B2F5"/>
<ellipse cx="40.6331" cy="51.7728" rx="2.68455" ry="2.69318" fill="#7E54AF"/>
<ellipse cx="51.3713" cy="51.7728" rx="2.68455" ry="2.69318" fill="#7E54AF"/>
<ellipse cx="62.1095" cy="51.7728" rx="2.68455" ry="2.69318" fill="#7E54AF"/>
<rect x="74.6374" y="49.0796" width="50.1117" height="5.38636" rx="2.69318" fill="white"/>
<path d="M107.471 119.039L103.357 93.5022C103.293 93.1083 103.47 92.7144 103.806 92.4999L106.77 90.6109C107.105 90.3973 107.534 90.4023 107.864 90.6236L129.795 105.333C130.029 105.489 130.185 105.737 130.227 106.015L131.896 117.143C131.956 117.539 131.772 117.934 131.43 118.143L118.184 126.266C117.842 126.476 117.409 126.461 117.082 126.229L107.879 119.695C107.661 119.54 107.514 119.303 107.471 119.039Z" fill="white" stroke="#7E54AF" stroke-width="3"/>
<path d="M132.433 117.973L139.322 122.016C139.973 122.398 139.982 123.336 139.338 123.731L119.556 135.862C118.912 136.257 118.08 135.824 118.035 135.07L117.555 127.097C117.533 126.729 117.716 126.378 118.03 126.185L131.404 117.983C131.719 117.79 132.115 117.786 132.433 117.973Z" fill="white" stroke="#7E54AF" stroke-width="3"/>
<path d="M105.284 91.5484L115.374 108.002" stroke="#7E54AF" stroke-width="3"/>
<circle cx="116.636" cy="110.059" r="3.32532" transform="rotate(-31.5184 116.636 110.059)" fill="white" stroke="#7E54AF" stroke-width="3"/>
<circle cx="95.5" cy="105.5" r="2.5" fill="white" stroke="#7E54AF" stroke-width="2"/>
<defs>
<linearGradient id="paint0_linear_28_234" x1="80.4987" y1="30" x2="80.4987" y2="131" gradientUnits="userSpaceOnUse">
<stop stop-color="#D1B2F5"/>
<stop offset="1" stop-color="#F7F0FE"/>
</linearGradient>
</defs>
</svg>
