<svg width="160" height="160" viewBox="0 0 160 160" fill="none" xmlns="http://www.w3.org/2000/svg">
<path d="M53.2077 129.255C81.2448 123.569 104.697 129.864 118.207 127.12C131.716 124.376 157.859 113.186 139.907 69.5581C121.955 25.9301 81.158 27.2744 66.2912 30.2874C-3.30038 44.3872 3.54909 139.314 53.2077 129.255Z" fill="url(#paint0_linear_36_527)" style="mix-blend-mode:darken"/>
<path fill-rule="evenodd" clip-rule="evenodd" d="M58.5653 46.746C57.935 46.849 57.5075 47.4435 57.6105 48.0738L57.9835 50.3565L55.7008 50.7294C55.0705 50.8324 54.643 51.4269 54.746 52.0573C54.849 52.6876 55.4435 53.1151 56.0738 53.0121L58.3565 52.6391L58.7295 54.9218C58.8324 55.5521 59.4269 55.9796 60.0573 55.8766C60.6876 55.7736 61.1151 55.1791 61.0121 54.5488L60.6391 52.2661L62.9218 51.8931C63.5521 51.7901 63.9796 51.1957 63.8766 50.5653C63.7736 49.935 63.1791 49.5075 62.5488 49.6105L60.2661 49.9835L59.8931 47.7008C59.7901 47.0705 59.1957 46.643 58.5653 46.746Z" fill="#7E54AF"/>
<path fill-rule="evenodd" clip-rule="evenodd" d="M43.5194 46.7269C43.0961 46.6265 42.6716 46.8883 42.5713 47.3116L42.2078 48.8444L40.675 48.481C40.2518 48.3806 39.8273 48.6424 39.7269 49.0657C39.6265 49.4889 39.8883 49.9134 40.3116 50.0138L41.8444 50.3772L41.481 51.91C41.3806 52.3333 41.6424 52.7578 42.0656 52.8582C42.4889 52.9585 42.9134 52.6968 43.0138 52.2735L43.3772 50.7407L44.9101 51.1041C45.3334 51.2045 45.7579 50.9427 45.8582 50.5194C45.9586 50.0962 45.6968 49.6717 45.2735 49.5713L43.7407 49.2078L44.1041 47.675C44.2045 47.2517 43.9427 46.8272 43.5194 46.7269Z" fill="#7E54AF"/>
<circle cx="44" cy="29" r="3" fill="white" stroke="#7E54AF" stroke-width="2"/>
<path fill-rule="evenodd" clip-rule="evenodd" d="M128.344 98.9789C127.745 99.2521 127.48 99.9599 127.753 100.56L128.743 102.732L126.57 103.721C125.97 103.995 125.706 104.702 125.979 105.302C126.252 105.902 126.96 106.167 127.56 105.894L129.732 104.904L130.721 107.076C130.995 107.676 131.702 107.941 132.302 107.668C132.902 107.395 133.167 106.687 132.894 106.087L131.904 103.915L134.076 102.925C134.676 102.652 134.941 101.944 134.668 101.344C134.395 100.745 133.687 100.48 133.087 100.753L130.915 101.743L129.925 99.5703C129.652 98.9704 128.944 98.7057 128.344 98.9789Z" fill="#7E54AF"/>
<path fill-rule="evenodd" clip-rule="evenodd" d="M125.021 116.807C124.55 116.696 124.079 116.987 123.967 117.457L123.564 119.16L121.861 118.756C121.391 118.645 120.919 118.935 120.808 119.406C120.696 119.876 120.987 120.347 121.457 120.459L123.16 120.863L122.756 122.565C122.645 123.036 122.935 123.507 123.406 123.619C123.876 123.73 124.347 123.439 124.459 122.969L124.863 121.266L126.565 121.67C127.036 121.782 127.507 121.491 127.619 121.021C127.73 120.55 127.439 120.079 126.969 119.967L125.266 119.564L125.67 117.861C125.782 117.391 125.491 116.919 125.021 116.807Z" fill="#7E54AF"/>
<circle cx="136.5" cy="125.5" r="2.5" stroke="#7E54AF" stroke-width="2"/>
<rect x="26" y="72" width="78.2835" height="59.2283" rx="6" fill="white" stroke="#7E54AF" stroke-width="4" stroke-linejoin="round"/>
<path d="M42.189 109.843C42.189 107.929 43.7401 106.378 45.6535 106.378C47.567 106.378 49.1181 107.929 49.1181 109.843V121.969H42.189V109.843Z" fill="#D1B2F5"/>
<path d="M56.0472 87.3228C56.0472 85.4094 57.5984 83.8583 59.5118 83.8583C61.4252 83.8583 62.9764 85.4094 62.9764 87.3228V121.969H56.0472V87.3228Z" fill="#7E54AF"/>
<path d="M69.9055 102.047C69.9055 100.134 71.4567 98.5827 73.3701 98.5827C75.2835 98.5827 76.8347 100.134 76.8347 102.047V121.969H69.9055V102.047Z" fill="#D1B2F5"/>
<path d="M83.7638 102.047C83.7638 100.134 85.3149 98.5827 87.2284 98.5827C89.1418 98.5827 90.6929 100.134 90.6929 102.047V121.969H83.7638V102.047Z" fill="#7E54AF"/>
<path fill-rule="evenodd" clip-rule="evenodd" d="M32.6614 117.638V80.3937C32.6614 79.437 33.437 78.6614 34.3937 78.6614C35.3504 78.6614 36.126 79.437 36.126 80.3937V117.638C36.126 119.551 37.6771 121.102 39.5906 121.102H96.7559C97.7126 121.102 98.4882 121.878 98.4882 122.835C98.4882 123.791 97.7126 124.567 96.7559 124.567H39.5906C35.7637 124.567 32.6614 121.465 32.6614 117.638Z" fill="#7E54AF" stroke="#7E54AF" stroke-linejoin="round"/>
<circle cx="104.654" cy="63.315" r="26.6539" fill="white" stroke="#7E54AF" stroke-width="4"/>
<path d="M126.663 63.315C126.663 67.8678 125.251 72.3086 122.622 76.0255C119.993 79.7424 116.276 82.5525 111.983 84.0685C107.689 85.5845 103.032 85.7318 98.6516 84.4902C94.2713 83.2486 90.3839 80.6791 87.5249 77.1359C84.6659 73.5926 82.9761 69.2499 82.6884 64.7061C82.4006 60.1624 83.529 55.6412 85.9181 51.7655C88.3072 47.8899 91.8394 44.8505 96.0281 43.0662C100.217 41.2818 104.856 40.8404 109.306 41.8027L104.654 63.315H126.663Z" fill="#7E54AF"/>
<path d="M136.63 56.6706C136.63 51.3727 134.853 46.2279 131.582 42.0597C128.312 37.8915 123.738 34.9409 118.593 33.6801L112.959 56.6706H136.63Z" fill="#D1B2F5" stroke="#7E54AF" stroke-width="4" stroke-linejoin="round"/>
<defs>
<linearGradient id="paint0_linear_36_527" x1="80.4987" y1="29" x2="80.4987" y2="130" gradientUnits="userSpaceOnUse">
<stop stop-color="#D1B2F5"/>
<stop offset="1" stop-color="#F7F0FE"/>
</linearGradient>
</defs>
</svg>
