<svg width="160" height="160" viewBox="0 0 160 160" fill="none" xmlns="http://www.w3.org/2000/svg">
<path d="M53.2077 122.255C81.2448 116.569 104.697 122.864 118.207 120.12C131.716 117.376 157.859 106.186 139.907 62.5581C121.955 18.9301 81.158 20.2744 66.2912 23.2874C-3.30038 37.3872 3.54909 132.314 53.2077 122.255Z" fill="url(#paint0_linear_28_82)" style="mix-blend-mode:darken"/>
<path fill-rule="evenodd" clip-rule="evenodd" d="M32.2097 22.9175C31.6285 23.1823 31.3719 23.8681 31.6367 24.4493L32.5954 26.5542L30.4906 27.5129C29.9093 27.7777 29.6528 28.4635 29.9175 29.0447C30.1823 29.626 30.8681 29.8825 31.4493 29.6178L33.5542 28.659L34.5129 30.7639C34.7777 31.3451 35.4635 31.6017 36.0447 31.337C36.626 31.0722 36.8826 30.3864 36.6178 29.8052L35.659 27.7003L37.7639 26.7415C38.3451 26.4768 38.6017 25.791 38.337 25.2097C38.0722 24.6285 37.3864 24.3719 36.8052 24.6367L34.7003 25.5954L33.7415 23.4906C33.4768 22.9093 32.791 22.6528 32.2097 22.9175Z" fill="#7E54AF"/>
<path fill-rule="evenodd" clip-rule="evenodd" d="M138.344 99.9789C137.745 100.252 137.48 100.96 137.753 101.56L138.743 103.732L136.57 104.721C135.97 104.995 135.706 105.702 135.979 106.302C136.252 106.902 136.96 107.167 137.56 106.894L139.732 105.904L140.721 108.076C140.995 108.676 141.702 108.941 142.302 108.668C142.902 108.395 143.167 107.687 142.894 107.087L141.904 104.915L144.076 103.925C144.676 103.652 144.941 102.944 144.668 102.344C144.395 101.745 143.687 101.48 143.087 101.753L140.915 102.743L139.925 100.57C139.652 99.9704 138.944 99.7057 138.344 99.9789Z" fill="#7E54AF"/>
<path fill-rule="evenodd" clip-rule="evenodd" d="M59.0206 15.8075C58.5503 15.696 58.0788 15.9868 57.9673 16.457L57.5635 18.1598L55.8608 17.7561C55.3905 17.6446 54.919 17.9354 54.8075 18.4056C54.696 18.8758 54.9868 19.3474 55.457 19.4588L57.1598 19.8626L56.7561 21.5654C56.6446 22.0356 56.9354 22.5072 57.4056 22.6186C57.8758 22.7301 58.3474 22.4393 58.4589 21.9691L58.8626 20.2663L60.5654 20.6701C61.0356 20.7816 61.5072 20.4908 61.6186 20.0205C61.7301 19.5503 61.4393 19.0788 60.9691 18.9673L59.2663 18.5635L59.6701 16.8608C59.7816 16.3905 59.4908 15.919 59.0206 15.8075Z" fill="#7E54AF"/>
<rect x="45" y="33" width="74.7499" height="94" rx="6" fill="white" stroke="#7E54AF" stroke-width="4"/>
<rect x="52.5192" y="39.6471" width="59.7115" height="11.5294" rx="4" fill="#D1B2F5"/>
<rect x="52.5192" y="57.9019" width="59.7115" height="33.6274" rx="4" fill="#D1B2F5"/>
<rect x="52.5192" y="97.2941" width="59.7115" height="24.0196" rx="4" fill="#D1B2F5"/>
<path fill-rule="evenodd" clip-rule="evenodd" d="M127.021 131.807C126.55 131.696 126.079 131.987 125.967 132.457L125.564 134.16L123.861 133.756C123.391 133.645 122.919 133.935 122.807 134.406C122.696 134.876 122.987 135.347 123.457 135.459L125.16 135.863L124.756 137.565C124.645 138.036 124.935 138.507 125.406 138.619C125.876 138.73 126.347 138.439 126.459 137.969L126.863 136.266L128.565 136.67C129.036 136.782 129.507 136.491 129.619 136.021C129.73 135.55 129.439 135.079 128.969 134.967L127.266 134.564L127.67 132.861C127.782 132.391 127.491 131.919 127.021 131.807Z" fill="#7E54AF"/>
<mask id="path-10-inside-1_28_82" fill="white">
<path fill-rule="evenodd" clip-rule="evenodd" d="M124.963 105.244C124.562 104.924 124.471 104.352 124.735 103.912C132.218 91.4721 129.517 75.1088 117.862 65.8025C105.17 55.6672 86.6647 57.7401 76.5294 70.4324C66.3941 83.1247 68.467 101.63 81.1593 111.765C91.4748 120.003 105.63 120.176 116.011 113.138C116.381 112.887 116.874 112.898 117.224 113.177L134.426 126.914C136.153 128.293 138.67 128.011 140.048 126.285L141.938 123.918C143.316 122.192 143.034 119.675 141.308 118.296L124.963 105.244Z"/>
</mask>
<path fill-rule="evenodd" clip-rule="evenodd" d="M124.963 105.244C124.562 104.924 124.471 104.352 124.735 103.912C132.218 91.4721 129.517 75.1088 117.862 65.8025C105.17 55.6672 86.6647 57.7401 76.5294 70.4324C66.3941 83.1247 68.467 101.63 81.1593 111.765C91.4748 120.003 105.63 120.176 116.011 113.138C116.381 112.887 116.874 112.898 117.224 113.177L134.426 126.914C136.153 128.293 138.67 128.011 140.048 126.285L141.938 123.918C143.316 122.192 143.034 119.675 141.308 118.296L124.963 105.244Z" fill="white"/>
<path d="M117.862 65.8025L120.358 62.6768L117.862 65.8025ZM76.5294 70.4324L73.4037 67.9364L76.5294 70.4324ZM81.1593 111.765L83.6553 108.64L81.1593 111.765ZM134.426 126.914L136.922 123.789L136.922 123.789L134.426 126.914ZM140.048 126.285L136.922 123.789L136.922 123.789L140.048 126.285ZM141.938 123.918L138.812 121.422L141.938 123.918ZM141.308 118.296L143.804 115.171L143.804 115.171L141.308 118.296ZM116.011 113.138L113.766 109.827L116.011 113.138ZM117.224 113.177L119.72 110.052L117.224 113.177ZM124.735 103.912L121.307 101.851L124.735 103.912ZM124.963 105.244L127.459 102.118L124.963 105.244ZM115.366 68.9282C125.433 76.9667 127.77 91.1059 121.307 101.851L128.163 105.974C136.665 91.8384 133.6 73.2509 120.358 62.6768L115.366 68.9282ZM79.6551 72.9284C88.4119 61.9623 104.4 60.1714 115.366 68.9282L120.358 62.6768C105.94 51.163 84.9175 53.5178 73.4037 67.9364L79.6551 72.9284ZM83.6553 108.64C72.6893 99.8829 70.8983 83.8944 79.6551 72.9284L73.4037 67.9364C61.8899 82.355 64.2448 103.377 78.6634 114.891L83.6553 108.64ZM113.766 109.827C104.794 115.91 92.5631 115.753 83.6553 108.64L78.6634 114.891C90.3865 124.252 106.466 124.442 118.256 116.449L113.766 109.827ZM136.922 123.789L119.72 110.052L114.728 116.303L131.93 130.04L136.922 123.789ZM136.922 123.789L136.922 123.789L131.93 130.04C135.383 132.797 140.417 132.233 143.174 128.781L136.922 123.789ZM138.812 121.422L136.922 123.789L143.174 128.781L145.064 126.414L138.812 121.422ZM138.812 121.422L138.812 121.422L145.064 126.414C147.821 122.961 147.257 117.928 143.804 115.171L138.812 121.422ZM122.467 108.37L138.812 121.422L143.804 115.171L127.459 102.118L122.467 108.37ZM118.256 116.449C117.229 117.145 115.797 117.157 114.728 116.303L119.72 110.052C117.951 108.639 115.533 108.629 113.766 109.827L118.256 116.449ZM121.307 101.851C120.052 103.937 120.435 106.747 122.467 108.37L127.459 102.118C128.689 103.101 128.889 104.767 128.163 105.974L121.307 101.851Z" fill="#7E54AF" mask="url(#path-10-inside-1_28_82)"/>
<circle cx="99.5109" cy="88.7839" r="19.1382" transform="rotate(-51.3914 99.5109 88.7839)" stroke="#7E54AF" stroke-width="4"/>
<circle cx="137.5" cy="84.5" r="2.5" fill="white" stroke="#7E54AF" stroke-width="2"/>
<circle cx="34" cy="52" r="3" fill="white" stroke="#7E54AF" stroke-width="2"/>
<defs>
<linearGradient id="paint0_linear_28_82" x1="80.4987" y1="22" x2="80.4987" y2="123" gradientUnits="userSpaceOnUse">
<stop stop-color="#D1B2F5"/>
<stop offset="1" stop-color="#F7F0FE"/>
</linearGradient>
</defs>
</svg>
