<svg width="160" height="160" viewBox="0 0 160 160" fill="none" xmlns="http://www.w3.org/2000/svg">
<rect width="160" height="160" fill="white"/>
<path d="M53.2077 129.255C81.2448 123.569 104.697 129.864 118.207 127.12C131.716 124.376 157.859 113.186 139.907 69.5581C121.955 25.9301 81.158 27.2744 66.2912 30.2874C-3.30038 44.3872 3.54909 139.314 53.2077 129.255Z" fill="url(#paint0_linear_36_455)" style="mix-blend-mode:darken"/>
<mask id="path-2-inside-1_36_455" fill="white">
<path d="M44 36.5076C44 32.0893 47.5817 28.5076 52 28.5076L97.656 28.5076C99.7274 28.5076 101.718 29.311 103.209 30.7489L112.344 39.5572L120.828 47.4135C122.464 48.9276 123.393 51.0551 123.393 53.2836V122C123.393 126.418 119.812 130 115.393 130H52C47.5817 130 44 126.418 44 122V36.5076Z"/>
</mask>
<path d="M44 36.5076C44 32.0893 47.5817 28.5076 52 28.5076L97.656 28.5076C99.7274 28.5076 101.718 29.311 103.209 30.7489L112.344 39.5572L120.828 47.4135C122.464 48.9276 123.393 51.0551 123.393 53.2836V122C123.393 126.418 119.812 130 115.393 130H52C47.5817 130 44 126.418 44 122V36.5076Z" fill="white"/>
<path d="M112.344 39.5572L109.567 42.4366L109.596 42.4647L109.626 42.4922L112.344 39.5572ZM103.209 30.7489L105.986 27.8695L103.209 30.7489ZM120.828 47.4135L118.111 50.3486L120.828 47.4135ZM52 28.5076L52 24.5076L52 28.5076ZM115.393 126H52V134H115.393V126ZM48 122V36.5076H40V122H48ZM52 32.5076L97.656 32.5076V24.5076L52 24.5076L52 32.5076ZM100.433 33.6282L109.567 42.4366L115.12 36.6778L105.986 27.8695L100.433 33.6282ZM109.626 42.4922L118.111 50.3486L123.546 44.4785L115.061 36.6221L109.626 42.4922ZM119.393 53.2836V122H127.393V53.2836H119.393ZM97.656 32.5076C98.6917 32.5076 99.687 32.9093 100.433 33.6282L105.986 27.8695C103.749 25.7128 100.763 24.5076 97.656 24.5076V32.5076ZM52 126C49.7909 126 48 124.209 48 122H40C40 128.627 45.3726 134 52 134V126ZM115.393 134C122.021 134 127.393 128.627 127.393 122H119.393C119.393 124.209 117.602 126 115.393 126V134ZM118.111 50.3486C118.928 51.1056 119.393 52.1693 119.393 53.2836H127.393C127.393 49.9408 125.999 46.7496 123.546 44.4785L118.111 50.3486ZM48 36.5076C48 34.2985 49.7909 32.5076 52 32.5076L52 24.5076C45.3726 24.5076 40 29.8802 40 36.5076H48Z" fill="#7E54AF" mask="url(#path-2-inside-1_36_455)"/>
<rect x="59.249" y="110.487" width="48.6063" height="5.71839" rx="2.8592" fill="#7E54AF"/>
<rect x="59.249" y="98.0975" width="48.6063" height="5.71839" rx="2.8592" fill="#D1B2F5"/>
<rect x="58.296" y="46.632" width="48.6063" height="5.71839" rx="2.8592" fill="#D1B2F5"/>
<path d="M98.3786 51.9079L97.8527 33.5043C97.802 31.7297 99.9164 30.7737 101.215 31.9839L120.136 49.6129C121.435 50.8231 120.63 52.9997 118.857 53.0744L112.412 53.3458L100.462 53.849C99.3477 53.8959 98.4104 53.0226 98.3786 51.9079Z" fill="white" stroke="#7E54AF" stroke-width="4" stroke-linejoin="round"/>
<rect x="104" y="64.7465" width="25" height="25" rx="3" fill="white" stroke="#7E54AF" stroke-width="3" stroke-linejoin="round"/>
<path fill-rule="evenodd" clip-rule="evenodd" d="M117.716 82.3619L117.717 82.3632C118.361 83.1043 119.222 83.4708 120.274 83.4708C120.926 83.4708 121.483 83.3467 121.928 83.0798C122.202 82.9155 122.443 82.7272 122.649 82.5146L122.795 83.3225H124.301V71.5647H122.502V74.9834C122.502 75.1293 122.511 75.3201 122.529 75.5536C122.345 75.3894 122.138 75.2419 121.91 75.1108C121.476 74.8548 120.93 74.7364 120.289 74.7364C119.235 74.7364 118.369 75.1147 117.716 75.8749C117.069 76.6289 116.767 77.7242 116.767 79.1184C116.767 80.5125 117.069 81.6078 117.716 82.3619ZM122.741 82.0207C122.695 82.0852 122.646 82.1478 122.594 82.2086C122.38 82.4596 122.115 82.6795 121.801 82.868C121.505 83.0459 121.144 83.157 120.72 83.2015C121.144 83.157 121.504 83.0459 121.801 82.868C122.196 82.6309 122.512 82.3444 122.749 82.0084L122.749 82.0084L122.741 82.0207ZM124.054 83.0755L124.054 83.0755V71.8117H122.749V71.8117H124.054V83.0755ZM122.838 76.1542L122.749 76.1542C122.694 76.0804 122.634 76.009 122.57 75.9403C122.353 75.7054 122.092 75.5 121.786 75.3242C121.439 75.1193 120.999 75.0068 120.466 74.9866C120.999 75.0068 121.439 75.1193 121.786 75.3242C122.181 75.5515 122.502 75.8282 122.749 76.1542H122.838ZM122.517 79.3703C122.517 80.2756 122.347 80.9096 122.047 81.3125C121.777 81.6778 121.283 81.8948 120.482 81.8948C119.841 81.8948 119.39 81.6647 119.086 81.2188C118.778 80.7513 118.61 80.0704 118.61 79.148C118.61 78.2367 118.778 77.5419 119.09 77.0415C119.398 76.5548 119.845 76.3123 120.467 76.3123C121.299 76.3123 121.8 76.5621 122.064 76.9944L122.066 76.9962C122.357 77.4637 122.517 78.1661 122.517 79.1332V79.3703ZM120.123 76.09C119.59 76.1698 119.176 76.4431 118.881 76.9101C118.535 77.4634 118.363 78.2094 118.363 79.148C118.363 80.0965 118.535 80.8326 118.881 81.3563C119.237 81.88 119.77 82.1418 120.482 82.1418C120.482 82.1418 120.482 82.1418 120.482 82.1418C119.77 82.1418 119.237 81.88 118.881 81.3563C118.535 80.8327 118.362 80.0966 118.362 79.148C118.362 78.2094 118.535 77.4634 118.881 76.9101C119.176 76.4431 119.59 76.1697 120.123 76.09ZM112.68 78.9529L115.344 83.3225H117.444L113.76 77.534L117.197 72.2465H115.198L112.726 76.1782L110.269 72.2465H108.195L111.646 77.5634L107.977 83.3225H109.973L112.68 78.9529ZM116.742 72.4935L113.467 77.5325L116.994 83.0755H115.482L116.994 83.0755L113.467 77.5325L116.742 72.4935L116.742 72.4935ZM112.681 78.4811L112.681 78.4811L109.836 83.0755L108.428 83.0755H109.836L112.681 78.4811ZM110.132 72.4935L112.726 76.6432L112.726 76.6433L110.132 72.4935H110.132Z" fill="#7E54AF"/>
<rect x="38" y="64.7465" width="25" height="25" rx="3" fill="white" stroke="#7E54AF" stroke-width="3" stroke-linejoin="round"/>
<path d="M45.8125 72.1329C45.8125 70.6423 47.0208 69.434 48.5114 69.434H51.2103V74.8317H48.5114C47.0208 74.8317 45.8125 73.6234 45.8125 72.1329V72.1329Z" fill="#7E54AF"/>
<path d="M45.8125 77.5306C45.8125 76.0401 47.0208 74.8318 48.5114 74.8318H51.2103V80.2295H48.5114C47.0208 80.2295 45.8125 79.0212 45.8125 77.5306V77.5306Z" fill="#D1B2F5"/>
<path d="M45.8125 82.9284C45.8125 81.4378 47.0208 80.2295 48.5114 80.2295H51.2103V82.9284C51.2103 84.4189 50.0019 85.6273 48.5114 85.6273V85.6273C47.0208 85.6273 45.8125 84.4189 45.8125 82.9284V82.9284Z" fill="#7E54AF"/>
<path d="M56.608 72.1329C56.608 73.6234 55.3996 74.8318 53.9091 74.8318H51.2102V69.434H53.9091C55.3996 69.434 56.608 70.6423 56.608 72.1329V72.1329Z" fill="#D1B2F5"/>
<circle cx="53.9092" cy="77.5306" r="2.69888" fill="#7E54AF"/>
<rect x="71" y="64.7465" width="25" height="25" rx="3" fill="white" stroke="#7E54AF" stroke-width="3" stroke-linejoin="round"/>
<path fill-rule="evenodd" clip-rule="evenodd" d="M79.2386 70.9965H89.1818L92.733 75.9681H75.6875L79.2386 70.9965ZM79.2386 80.3182L75.6875 75.9681H92.733L89.1818 80.3182L84.2102 85.9113L79.2386 80.3182Z" fill="#7E54AF"/>
<path fill-rule="evenodd" clip-rule="evenodd" d="M133.344 118.979C132.745 119.252 132.48 119.96 132.753 120.56L133.743 122.732L131.57 123.721C130.97 123.995 130.706 124.702 130.979 125.302C131.252 125.902 131.96 126.167 132.56 125.894L134.732 124.904L135.721 127.076C135.995 127.676 136.702 127.941 137.302 127.668C137.902 127.395 138.167 126.687 137.894 126.087L136.904 123.915L139.076 122.925C139.676 122.652 139.941 121.944 139.668 121.344C139.395 120.745 138.687 120.48 138.087 120.753L135.915 121.743L134.925 119.57C134.652 118.97 133.944 118.706 133.344 118.979Z" fill="#7E54AF"/>
<path fill-rule="evenodd" clip-rule="evenodd" d="M119.021 138.807C118.55 138.696 118.079 138.987 117.967 139.457L117.564 141.16L115.861 140.756C115.391 140.645 114.919 140.935 114.808 141.406C114.696 141.876 114.987 142.347 115.457 142.459L117.16 142.863L116.756 144.565C116.645 145.036 116.935 145.507 117.406 145.619C117.876 145.73 118.347 145.439 118.459 144.969L118.863 143.266L120.565 143.67C121.036 143.782 121.507 143.491 121.619 143.021C121.73 142.55 121.439 142.079 120.969 141.967L119.266 141.564L119.67 139.861C119.782 139.391 119.491 138.919 119.021 138.807Z" fill="#7E54AF"/>
<circle cx="131.5" cy="140.5" r="2.5" stroke="#7E54AF" stroke-width="2"/>
<path fill-rule="evenodd" clip-rule="evenodd" d="M34.3022 50.6679C34.9021 50.3946 35.1669 49.6869 34.8936 49.087L33.9042 46.9148L36.0764 45.9253C36.6763 45.6521 36.9411 44.9443 36.6678 44.3445C36.3946 43.7446 35.6868 43.4799 35.087 43.7531L32.9148 44.7425L31.9253 42.5703C31.6521 41.9704 30.9443 41.7057 30.3445 41.9789C29.7446 42.2521 29.4799 42.9599 29.7531 43.5597L30.7425 45.732L28.5703 46.7214C27.9704 46.9946 27.7057 47.7024 27.9789 48.3023C28.2521 48.9021 28.9599 49.1669 29.5597 48.8937L31.732 47.9042L32.7214 50.0765C32.9946 50.6763 33.7024 50.9411 34.3022 50.6679Z" fill="#7E54AF"/>
<path fill-rule="evenodd" clip-rule="evenodd" d="M47.4056 24.6186C47.8758 24.7301 48.3474 24.4393 48.4588 23.9691L48.8626 22.2663L50.5654 22.6701C51.0356 22.7816 51.5072 22.4908 51.6186 22.0206C51.7301 21.5503 51.4393 21.0788 50.9691 20.9673L49.2663 20.5635L49.6701 18.8608C49.7816 18.3905 49.4908 17.919 49.0205 17.8075C48.5503 17.696 48.0788 17.9868 47.9673 18.457L47.5635 20.1598L45.8607 19.7561C45.3905 19.6446 44.919 19.9354 44.8075 20.4056C44.696 20.8758 44.9868 21.3474 45.457 21.4589L47.1598 21.8626L46.7561 23.5654C46.6446 24.0356 46.9354 24.5072 47.4056 24.6186Z" fill="#7E54AF"/>
<circle cx="29.5" cy="31.5" r="2.5" transform="rotate(-180 29.5 31.5)" stroke="#7E54AF" stroke-width="2"/>
<defs>
<linearGradient id="paint0_linear_36_455" x1="80.4987" y1="29" x2="80.4987" y2="130" gradientUnits="userSpaceOnUse">
<stop stop-color="#D1B2F5"/>
<stop offset="1" stop-color="#F7F0FE"/>
</linearGradient>
</defs>
</svg>
