<svg width="160" height="160" viewBox="0 0 160 160" fill="none" xmlns="http://www.w3.org/2000/svg">
<rect width="160" height="160" fill="white"/>
<path d="M53.2077 131.255C81.2448 125.569 104.697 131.864 118.207 129.12C131.716 126.376 157.859 115.186 139.907 71.5581C121.955 27.9301 81.158 29.2744 66.2912 32.2874C-3.30038 46.3872 3.54909 141.314 53.2077 131.255Z" fill="url(#paint0_linear_28_135)" style="mix-blend-mode:darken"/>
<rect x="44" y="34.0822" width="31.9589" height="92.5753" rx="6" fill="white" stroke="#7E54AF" stroke-width="4"/>
<path d="M46 41H55.8722C56.4245 41 56.8722 41.4477 56.8722 42V43.7826C56.8722 44.3349 56.4245 44.7826 55.8722 44.7826H46V41Z" fill="#D1B2F5"/>
<path d="M46 65.965H55.8722C56.4245 65.965 56.8722 66.4127 56.8722 66.965V68.7475C56.8722 69.2998 56.4245 69.7475 55.8722 69.7475H46V65.965Z" fill="#D1B2F5"/>
<path d="M46 82.6083H55.8722C56.4245 82.6083 56.8722 83.056 56.8722 83.6083V85.3909C56.8722 85.9432 56.4245 86.3909 55.8722 86.3909H46V82.6083Z" fill="#D1B2F5"/>
<path d="M46 49.3217H55.8722C56.4245 49.3217 56.8722 49.7694 56.8722 50.3217V52.1042C56.8722 52.6565 56.4245 53.1042 55.8722 53.1042H46V49.3217Z" fill="#D1B2F5"/>
<path d="M46 74.2867H55.8722C56.4245 74.2867 56.8722 74.7344 56.8722 75.2867V77.0692C56.8722 77.6215 56.4245 78.0692 55.8722 78.0692H46V74.2867Z" fill="#D1B2F5"/>
<path d="M46 90.93H55.8722C56.4245 90.93 56.8722 91.3777 56.8722 91.93V93.7125C56.8722 94.2648 56.4245 94.7125 55.8722 94.7125H46V90.93Z" fill="#D1B2F5"/>
<path d="M46 115.895H55.8722C56.4245 115.895 56.8722 116.343 56.8722 116.895V118.678C56.8722 119.23 56.4245 119.678 55.8722 119.678H46V115.895Z" fill="#D1B2F5"/>
<path d="M46 107.573H55.8722C56.4245 107.573 56.8722 108.021 56.8722 108.573V110.356C56.8722 110.908 56.4245 111.356 55.8722 111.356H46V107.573Z" fill="#D1B2F5"/>
<path d="M46 57.6433H61.8026C62.3549 57.6433 62.8026 58.091 62.8026 58.6433V60.4259C62.8026 60.9782 62.3549 61.4259 61.8026 61.4259H46V57.6433Z" fill="#7E54AF"/>
<path d="M46 99.2516H61.8026C62.3549 99.2516 62.8026 99.6993 62.8026 100.252V102.034C62.8026 102.586 62.3549 103.034 61.8026 103.034H46V99.2516Z" fill="#7E54AF"/>
<path d="M88.2328 32.0822H114.945V116.329L101.589 129.685L88.2328 116.329V32.0822Z" fill="white"/>
<rect x="96.452" y="45.4383" width="10.274" height="70.8904" fill="#D1B2F5"/>
<mask id="path-15-inside-1_28_135" fill="white">
<path fill-rule="evenodd" clip-rule="evenodd" d="M109 33H93.1807C90.9716 33 89.1807 34.7909 89.1807 37V115.822L101.499 128.066L113 115.895V37C113 34.7909 111.209 33 109 33ZM93.1807 29C88.7624 29 85.1807 32.5817 85.1807 37V115.822C85.1807 116.887 85.6055 117.909 86.3609 118.659L98.6795 130.903C100.274 132.488 102.862 132.447 104.406 130.813L115.907 118.643C116.609 117.9 117 116.917 117 115.895V37C117 32.5817 113.418 29 109 29H93.1807Z"/>
</mask>
<path fill-rule="evenodd" clip-rule="evenodd" d="M109 33H93.1807C90.9716 33 89.1807 34.7909 89.1807 37V115.822L101.499 128.066L113 115.895V37C113 34.7909 111.209 33 109 33ZM93.1807 29C88.7624 29 85.1807 32.5817 85.1807 37V115.822C85.1807 116.887 85.6055 117.909 86.3609 118.659L98.6795 130.903C100.274 132.488 102.862 132.447 104.406 130.813L115.907 118.643C116.609 117.9 117 116.917 117 115.895V37C117 32.5817 113.418 29 109 29H93.1807Z" fill="#F7F0FE"/>
<path d="M89.1807 115.822H85.1807V117.486L86.3609 118.659L89.1807 115.822ZM101.499 128.066L98.6795 130.903L101.589 133.794L104.406 130.813L101.499 128.066ZM113 115.895L115.907 118.643L117 117.486V115.895H113ZM86.3609 118.659L89.1807 115.822L89.1807 115.822L86.3609 118.659ZM98.6795 130.903L95.8597 133.74L95.8597 133.74L98.6795 130.903ZM104.406 130.813L107.314 133.56L107.314 133.56L104.406 130.813ZM115.907 118.643L118.815 121.39L118.815 121.39L115.907 118.643ZM93.1807 37H109V29H93.1807V37ZM93.1807 37L93.1807 37V29C88.7624 29 85.1807 32.5817 85.1807 37H93.1807ZM93.1807 115.822V37H85.1807V115.822H93.1807ZM104.319 125.229L92.0005 112.985L86.3609 118.659L98.6795 130.903L104.319 125.229ZM110.093 113.148L98.592 125.318L104.406 130.813L115.907 118.643L110.093 113.148ZM109 37V115.895H117V37H109ZM109 37H109H117C117 32.5817 113.418 29 109 29V37ZM89.1807 37C89.1807 34.7909 90.9716 33 93.1807 33V25C86.5533 25 81.1807 30.3726 81.1807 37H89.1807ZM89.1807 115.822V37H81.1807V115.822H89.1807ZM89.1807 115.822L89.1807 115.822H81.1807C81.1807 117.952 82.0303 119.995 83.5412 121.496L89.1807 115.822ZM101.499 128.066L89.1807 115.822L83.5412 121.496L95.8597 133.74L101.499 128.066ZM101.499 128.066L101.499 128.066L95.8597 133.74C99.0495 136.91 104.225 136.829 107.314 133.56L101.499 128.066ZM113 115.895L101.499 128.066L107.314 133.56L118.815 121.39L113 115.895ZM113 115.895L113 115.895L118.815 121.39C120.218 119.905 121 117.939 121 115.895H113ZM113 37V115.895H121V37H113ZM109 33C111.209 33 113 34.7909 113 37H121C121 30.3726 115.627 25 109 25V33ZM93.1807 33H109V25H93.1807V33Z" fill="#7E54AF" mask="url(#path-15-inside-1_28_135)"/>
<line x1="106.1" y1="44.1691" x2="106.1" y2="114.115" stroke="#7E54AF" stroke-width="4"/>
<line x1="95.7805" y1="44.1691" x2="95.7805" y2="114.115" stroke="#7E54AF" stroke-width="4"/>
<line x1="88.2328" y1="43.4383" x2="114.945" y2="43.4383" stroke="#7E54AF" stroke-width="4"/>
<line x1="88.2328" y1="115.356" x2="114.945" y2="115.356" stroke="#7E54AF" stroke-width="4"/>
<path fill-rule="evenodd" clip-rule="evenodd" d="M28.2765 28.5639C27.9226 29.0955 28.0667 29.8134 28.5984 30.1674L30.5237 31.449L29.242 33.3744C28.8881 33.9061 29.0322 34.624 29.5639 34.9779C30.0955 35.3318 30.8134 35.1877 31.1674 34.6561L32.4491 32.7307L34.3744 34.0124C34.9061 34.3664 35.624 34.2223 35.9779 33.6906C36.3318 33.1589 36.1878 32.441 35.6561 32.0871L33.7307 30.8054L35.0124 28.88C35.3664 28.3484 35.2223 27.6305 34.6906 27.2765C34.1589 26.9226 33.441 27.0667 33.0871 27.5984L31.8054 29.5237L29.8801 28.242C29.3484 27.8881 28.6305 28.0322 28.2765 28.5639Z" fill="#7E54AF"/>
<path fill-rule="evenodd" clip-rule="evenodd" d="M50.6271 21.5834C50.2874 21.5028 49.9467 21.7129 49.8662 22.0526L49.5745 23.2828L48.3443 22.9911C48.0046 22.9106 47.6639 23.1207 47.5834 23.4604C47.5028 23.8001 47.7129 24.1408 48.0526 24.2213L49.2828 24.513L48.9911 25.7432C48.9106 26.0829 49.1207 26.4236 49.4604 26.5041C49.8001 26.5847 50.1408 26.3746 50.2213 26.0349L50.513 24.8047L51.7432 25.0964C52.0829 25.1769 52.4236 24.9668 52.5041 24.6271C52.5847 24.2874 52.3746 23.9467 52.0349 23.8662L50.8047 23.5745L51.0964 22.3443C51.1769 22.0046 50.9668 21.6639 50.6271 21.5834Z" fill="#7E54AF"/>
<circle cx="36" cy="59" r="3" fill="white" stroke="#7E54AF" stroke-width="2"/>
<path fill-rule="evenodd" clip-rule="evenodd" d="M126.344 108.979C125.745 109.252 125.48 109.96 125.753 110.56L126.743 112.732L124.57 113.721C123.97 113.995 123.706 114.702 123.979 115.302C124.252 115.902 124.96 116.167 125.56 115.894L127.732 114.904L128.721 117.076C128.995 117.676 129.702 117.941 130.302 117.668C130.902 117.395 131.167 116.687 130.894 116.087L129.904 113.915L132.076 112.925C132.676 112.652 132.941 111.944 132.668 111.344C132.395 110.745 131.687 110.48 131.087 110.753L128.915 111.743L127.925 109.57C127.652 108.97 126.944 108.706 126.344 108.979Z" fill="#7E54AF"/>
<path fill-rule="evenodd" clip-rule="evenodd" d="M116.021 130.807C115.55 130.696 115.079 130.987 114.967 131.457L114.564 133.16L112.861 132.756C112.391 132.645 111.919 132.935 111.807 133.406C111.696 133.876 111.987 134.347 112.457 134.459L114.16 134.863L113.756 136.565C113.645 137.036 113.935 137.507 114.406 137.619C114.876 137.73 115.347 137.439 115.459 136.969L115.863 135.266L117.565 135.67C118.036 135.782 118.507 135.491 118.619 135.021C118.73 134.55 118.439 134.079 117.969 133.967L116.266 133.564L116.67 131.861C116.782 131.391 116.491 130.919 116.021 130.807Z" fill="#7E54AF"/>
<circle cx="130.5" cy="131.5" r="2.5" stroke="#7E54AF" stroke-width="2"/>
<defs>
<linearGradient id="paint0_linear_28_135" x1="80.4987" y1="31" x2="80.4987" y2="132" gradientUnits="userSpaceOnUse">
<stop stop-color="#D1B2F5"/>
<stop offset="1" stop-color="#F7F0FE"/>
</linearGradient>
</defs>
</svg>
